<?xml version="1.0" encoding="UTF-8" standalone="no"?>
<svg
   viewBox="0, 0, 400,332.427843803056"
   version="1.1"
   id="svg6"
   sodipodi:docname="m.svg"
   inkscape:export-filename="m.png"
   inkscape:export-xdpi="96"
   inkscape:export-ydpi="96"
   xml:space="preserve"
   xmlns:inkscape="http://www.inkscape.org/namespaces/inkscape"
   xmlns:sodipodi="http://sodipodi.sourceforge.net/DTD/sodipodi-0.dtd"
   xmlns="http://www.w3.org/2000/svg"
   xmlns:svg="http://www.w3.org/2000/svg"><g
     id="g563"><ellipse
       cx="172.21774"
       cy="60.582794"
       rx="24.914482"
       ry="24.210186"
       id="ellipse6" /><path
       d="m 112.07826,295.86243 q -25.546741,0 -41.042305,-22.19635 -15.076764,-22.61515 -15.076764,-60.72586 0,-15.07676 0.837598,-26.38434 1.256397,-11.30757 2.931593,-23.45274 2.512794,-17.17076 5.025588,-27.64073 2.512794,-10.88878 2.512794,-21.35875 H 0.67772134 V 85.625323 H 54.283995 q 22.196347,0 33.503921,5.025588 11.726372,4.606789 11.726372,25.546739 0,5.44439 -0.418799,9.63238 -0.418799,4.18799 -1.256397,7.11958 13.401568,-4.18799 28.897128,-5.86318 15.91437,-1.6752 25.96554,-1.6752 21.77755,0 39.78591,4.60679 18.00836,4.60679 32.66632,11.72637 4.18799,-5.86319 10.88878,-16.75196 7.11958,-10.88877 22.19634,-35.179117 19.26476,-30.991127 36.85432,-45.230293 18.00835,-14.239166 43.13629,-14.239166 21.77755,0 37.27312,11.307573 15.91436,11.307573 23.87154,30.991127 l -26.38434,11.307573 q -5.44438,-14.239166 -15.07676,-19.683553 -9.21358,-5.444388 -21.35875,-5.444388 -14.23917,0 -26.38434,10.051177 -11.72637,10.051176 -26.38434,33.922717 -20.93995,35.17912 -33.92272,56.95667 -12.98277,21.35875 -21.35875,34.76032 -7.95718,13.40156 -15.49556,24.29034 -13.82037,20.52115 -29.73473,38.11071 -15.91436,17.58956 -33.50392,28.47833 -17.58956,10.46998 -37.69191,10.46998 z m 0,-28.47834 q 15.91436,0 31.82872,-13.40156 16.33316,-13.40157 32.66633,-36.01672 16.75196,-23.03394 33.92272,-51.93108 -12.98277,-5.86318 -28.89714,-8.79478 -15.49556,-3.35039 -30.15352,-3.35039 -15.49557,0 -30.57233,2.9316 -15.07677,2.51279 -28.478335,7.11958 -2.093995,10.46997 -3.350392,23.45274 -0.837598,12.98277 -0.837598,26.38434 0,24.70914 7.119583,39.36711 7.538382,14.23916 16.751962,14.23916 z"
       id="path489"
       style="display:inline;image-rendering:auto" /><ellipse
       cx="249.5977"
       cy="286.44006"
       rx="24.914482"
       ry="24.210186"
       id="ellipse8" /><g><ellipse
         cx="172.21774"
         cy="60.582794"
         rx="24.914482"
         ry="24.210186"
         fill="#002200"
         id="1" /><path
         d="m 112.07826,295.86243 q -25.546741,0 -41.042305,-22.19635 -15.076764,-22.61515 -15.076764,-60.72586 0,-15.07676 0.837598,-26.38434 1.256397,-11.30757 2.931593,-23.45274 2.512794,-17.17076 5.025588,-27.64073 2.512794,-10.88878 2.512794,-21.35875 H 0.67772134 V 85.625323 H 54.283995 q 22.196347,0 33.503921,5.025588 11.726372,4.606789 11.726372,25.546739 0,5.44439 -0.418799,9.63238 -0.418799,4.18799 -1.256397,7.11958 13.401568,-4.18799 28.897128,-5.86318 15.91437,-1.6752 25.96554,-1.6752 21.77755,0 39.78591,4.60679 18.00836,4.60679 32.66632,11.72637 4.18799,-5.86319 10.88878,-16.75196 7.11958,-10.88877 22.19634,-35.179117 19.26476,-30.991127 36.85432,-45.230293 18.00835,-14.239166 43.13629,-14.239166 21.77755,0 37.27312,11.307573 15.91436,11.307573 23.87154,30.991127 l -26.38434,11.307573 q -5.44438,-14.239166 -15.07676,-19.683553 -9.21358,-5.444388 -21.35875,-5.444388 -14.23917,0 -26.38434,10.051177 -11.72637,10.051176 -26.38434,33.922717 -20.93995,35.17912 -33.92272,56.95667 -12.98277,21.35875 -21.35875,34.76032 -7.95718,13.40156 -15.49556,24.29034 -13.82037,20.52115 -29.73473,38.11071 -15.91436,17.58956 -33.50392,28.47833 -17.58956,10.46998 -37.69191,10.46998 z m 0,-28.47834 q 15.91436,0 31.82872,-13.40156 16.33316,-13.40157 32.66633,-36.01672 16.75196,-23.03394 33.92272,-51.93108 -12.98277,-5.86318 -28.89714,-8.79478 -15.49556,-3.35039 -30.15352,-3.35039 -15.49557,0 -30.57233,2.9316 -15.07677,2.51279 -28.478335,7.11958 -2.093995,10.46997 -3.350392,23.45274 -0.837598,12.98277 -0.837598,26.38434 0,24.70914 7.119583,39.36711 7.538382,14.23916 16.751962,14.23916 z"
         fill="#28B80F"
         id="2" /><ellipse
         cx="249.5977"
         cy="286.44006"
         rx="24.914482"
         ry="24.210186"
         fill="#002200"
         id="3" /></g></g><defs /><sodipodi:namedview
     bordercolor="#eeeeee"
     borderopacity="1"
     showgrid="false"
     pagecolor="#505050" /></svg>
