<?xml version="1.0" encoding="UTF-8" standalone="no"?>
<svg
   viewBox="0, 0, 400,332.427843803056"
   version="1.1"
   xmlns="http://www.w3.org/2000/svg"
   xmlns:svg="http://www.w3.org/2000/svg">
  <g
     transform="matrix(0.99777182,0,0,0.99944802,-2.0995437,0.09925547)"
     id="g4">
    <path
       d="m 306.66655,48.752995 c -45.73,5.73 -73.25833,45.14522 -88.49833,78.995215 l -104.11569,5.19706 C 113.85259,108.80514 104.3917,90.923549 95.311703,83.053549 83.646134,72.918042 67.36782,74.841488 51.54782,80.111488 39.635596,84.247887 24.250142,95.654945 25.252943,102.41026 c 5.922696,28.95553 67.096279,-51.043263 62.153026,38.11037 -0.07083,13.42591 -30.332483,64.05831 -30.332483,64.05831 -19.356802,37.94774 10.111691,84.68381 41.361688,91.55381 0,0 45.066286,8.70962 90.580646,-36.37937 16.24105,-18.87679 26.49091,-34.89286 45.81091,-83.15286 11.68,-29.17 12.21198,-29.30349 19.78198,-46.77349 6.53,-15.08 18.91521,-36.970016 36.44049,-46.773481 73.52852,-28.951734 35.79794,68.620241 47.12974,88.988081 13.84521,12.65991 17.86983,-17.88845 22.97103,-52.99422 4.06299,-39.471313 -12.81342,-74.494415 -54.48342,-70.294415 M 202.55086,176.60052 c 0,0 -25.13437,57.71875 -48.93437,72.75875 -17.88205,15.03013 -39.91132,21.38411 -55.181316,10.39411 C 84.735435,249.69274 74.773605,235.14461 88.023605,204.66461 109.99181,163.60695 98.687903,183.07435 109.8879,163.08818 l 98.9099,-4.15765"
       stroke="none"
       fill="inherit"
       fill-rule="evenodd"
       id="path2"/>
  </g>
  <ellipse
     cx="172.21774"
     cy="60.582794"
     rx="24.914482"
     ry="24.210186"
     id="ellipse6" />
  <ellipse
     cx="249.5977"
     cy="286.44006"
     rx="24.914482"
     ry="24.210186"
     id="ellipse8" />
</svg>
